# xmcd
#
# Track frame offsets:
#	150
#	17582
#	26708
#	38377
#	49580
#	67159
#	84001
#	103840
#	114684
#	125369
#
# Disc length: 1936 seconds
#
# Revision: 1
# Processed by: cddbd v1.5.2PL0 Copyright (c) Steve Scherf et al.
# Submitted via: audiograbber 1.83.01
#
DISCID=77078e0a
DTITLE=Katie Renea - Thats What I Think About My Baby
DYEAR=2003
DGENRE=Country
TTITLE0=That´s What I Think About My Baby
TTITLE1=Cool Rain
TTITLE2=Waiting For My Love
TTITLE3=Front Porch Boogie
TTITLE4=I´m Easy
TTITLE5=I Wanna Go Back
TTITLE6=The Strongest Man
TTITLE7=Walking In His Grace
TTITLE8=Let The Praises Ring
TTITLE9=The Strongest Man
EXTD=
EXTT0=
EXTT1=
EXTT2=
EXTT3=
EXTT4=
EXTT5=
EXTT6=
EXTT7=
EXTT8=
EXTT9=
PLAYORDER=
